<?xml version="1.0" encoding="UTF-8"?>
<svg version="1.1" xmlns="http://www.w3.org/2000/svg" width="2160" height="2160">
<path d="M0 0 C1.26481201 -0.0157608 2.52962402 -0.03152161 3.83276367 -0.04776001 C5.20492426 -0.0388099 6.57707687 -0.02855483 7.94921875 -0.01708984 C9.36499447 -0.02046076 10.78076736 -0.02531568 12.1965332 -0.03158569 C15.1589726 -0.03894429 18.12065649 -0.02828592 21.08300781 -0.00488281 C24.87309401 0.02360643 28.66140998 0.00719672 32.45143127 -0.02274513 C35.37354783 -0.04084675 38.29524732 -0.03504742 41.21737671 -0.02210617 C42.61437186 -0.01877997 44.01140536 -0.02283166 45.40835571 -0.03450394 C47.36337522 -0.04725582 49.31852818 -0.0243601 51.2734375 0 C52.93959106 0.00596695 52.93959106 0.00596695 54.6394043 0.01205444 C58.58302316 0.8474274 60.08687367 2.60269429 62.63671875 5.64697266 C64.19148565 8.75650645 63.92316312 11.20964026 63.63671875 14.64697266 C60.55979567 20.18543419 60.55979567 20.18543419 57.63671875 21.64697266 C55.96925815 21.7312336 54.29846688 21.75422408 52.62890625 21.74462891 C51.64277344 21.74140625 50.65664063 21.73818359 49.640625 21.73486328 C48.60808594 21.72648437 47.57554688 21.71810547 46.51171875 21.70947266 C44.95130859 21.70270508 44.95130859 21.70270508 43.359375 21.69580078 C40.78509913 21.68399218 38.21093729 21.66752341 35.63671875 21.64697266 C35.66701172 22.96076904 35.69730469 24.27456543 35.72851562 25.62817383 C35.84274113 30.61005472 35.95377905 35.59200287 36.06396484 40.57397461 C36.11162892 42.71006119 36.16010151 44.84612992 36.20947266 46.98217773 C36.53754934 61.20664552 36.70392565 75.41871098 36.63671875 89.64697266 C30.60448672 89.77071661 24.5729959 89.86138079 18.53979492 89.92163086 C16.48823169 89.94675072 14.43675774 89.98085302 12.38549805 90.02416992 C9.43385784 90.08493268 6.48340225 90.11320758 3.53125 90.13525391 C2.61648392 90.16106033 1.70171783 90.18686676 0.75923157 90.2134552 C-3.78751877 90.21545064 -5.72812612 90.13426258 -9.44018555 87.28637695 C-11.62174004 84.29224395 -12.03981651 82.81628295 -11.98828125 79.14697266 C-12.00117188 78.22916016 -12.0140625 77.31134766 -12.02734375 76.36572266 C-11.36328125 73.64697266 -11.36328125 73.64697266 -6.36328125 68.64697266 C0.56671875 68.64697266 7.49671875 68.64697266 14.63671875 68.64697266 C14.63671875 53.13697266 14.63671875 37.62697266 14.63671875 21.64697266 C7.70671875 21.64697266 0.77671875 21.64697266 -6.36328125 21.64697266 C-11.36328125 16.64697266 -11.36328125 16.64697266 -12.02734375 13.92822266 C-12.01445312 13.01041016 -12.0015625 12.09259766 -11.98828125 11.14697266 C-12.00117188 10.22916016 -12.0140625 9.31134766 -12.02734375 8.36572266 C-10.48001841 2.03079068 -6.09834411 0.02183983 0 0 Z " fill="#7361FD" transform="translate(11.36328125,14.35302734375)"/>
<path d="M0 0 C0.94735519 0.00707474 1.89471039 0.01414948 2.87077332 0.0214386 C5.88731896 0.04935791 8.90198715 0.1120921 11.91796875 0.17578125 C13.96677001 0.20086729 16.01560045 0.22367992 18.06445312 0.24414062 C23.07942461 0.29492 28.09035341 0.39277546 33.10546875 0.48828125 C33.10546875 7.41828125 33.10546875 14.34828125 33.10546875 21.48828125 C27.07196679 21.60318078 21.04227003 21.70268415 15.00854492 21.76293945 C12.95698169 21.78805931 10.90550774 21.82216161 8.85424805 21.86547852 C5.90260784 21.92624127 2.95215225 21.95451617 0 21.9765625 C-0.91476608 22.00236893 -1.82953217 22.02817535 -2.77201843 22.05476379 C-7.31876877 22.05675923 -9.25937612 21.97557118 -12.97143555 19.12768555 C-15.15299004 16.13355255 -15.57106651 14.65759155 -15.51953125 10.98828125 C-15.53242188 10.07046875 -15.5453125 9.15265625 -15.55859375 8.20703125 C-13.52111517 -0.13464574 -7.19665695 -0.20302458 0 0 Z " fill="#33F8C9" transform="translate(14.89453125,82.51171875)"/>
<path d="M0 0 C1.32 0 2.64 0 4 0 C4 0.66 4 1.32 4 2 C4.56847656 1.67644531 5.13695312 1.35289063 5.72265625 1.01953125 C9.41628261 -0.63404762 13.02648469 -0.48785152 17 0 C20.0625 1.5 20.0625 1.5 22 3 C22.639375 2.505 23.27875 2.01 23.9375 1.5 C28.04376265 -0.51123069 31.50209723 -0.74284783 36 0 C39.60297385 2.14645251 41.45178354 4.14700359 43 8 C43.22705078 10.56542969 43.22705078 10.56542969 43.1953125 13.421875 C43.18886719 14.44667969 43.18242187 15.47148438 43.17578125 16.52734375 C43.15902344 17.59082031 43.14226562 18.65429688 43.125 19.75 C43.11597656 20.82894531 43.10695312 21.90789063 43.09765625 23.01953125 C43.07411305 25.67991278 43.04122799 28.33984336 43 31 C41.35 31 39.7 31 38 31 C37.98541748 30.42032471 37.97083496 29.84064941 37.95581055 29.2434082 C37.88101472 26.59912447 37.78446102 23.95605998 37.6875 21.3125 C37.65366211 19.94448242 37.65366211 19.94448242 37.61914062 18.54882812 C37.40033701 11.74860672 37.40033701 11.74860672 34 6 C30.45749949 5.33323122 30.45749949 5.33323122 27 6 C24.87719437 9.18420845 24.71980463 10.20537255 24.5859375 13.88671875 C24.54726562 14.82451172 24.50859375 15.76230469 24.46875 16.72851562 C24.4378125 17.70498047 24.406875 18.68144531 24.375 19.6875 C24.33632812 20.67556641 24.29765625 21.66363281 24.2578125 22.68164062 C24.16354133 25.12090707 24.07793782 27.56016595 24 30 C22.35 30.33 20.7 30.66 19 31 C18.96261719 29.69804688 18.92523438 28.39609375 18.88671875 27.0546875 C18.82103326 25.32809743 18.75458682 23.60153619 18.6875 21.875 C18.66494141 21.0190625 18.64238281 20.163125 18.61914062 19.28125 C18.40152861 14.13769325 17.75300848 10.50223908 15 6 C11.58343976 5.83322718 11.58343976 5.83322718 8 6 C4.90237004 9.09762996 4.88434282 12.30246601 4.68359375 16.546875 C4.64169922 17.39121094 4.59980469 18.23554687 4.55664062 19.10546875 C4.51732422 19.97816406 4.47800781 20.85085937 4.4375 21.75 C4.37272461 23.08224609 4.37272461 23.08224609 4.30664062 24.44140625 C4.20086385 26.62745963 4.09877454 28.81362089 4 31 C2.35 30.67 0.7 30.34 -1 30 C-1.02465746 25.8882744 -1.04283959 21.77657722 -1.05493164 17.66479492 C-1.0599708 16.26504772 -1.06680216 14.8653058 -1.07543945 13.46557617 C-1.0875232 11.45754223 -1.09269807 9.44947043 -1.09765625 7.44140625 C-1.10289307 6.23170166 -1.10812988 5.02199707 -1.11352539 3.77563477 C-1 1 -1 1 0 0 Z " fill="#141414" transform="translate(132,42)"/>
<path d="M0 0 C4.06212212 -0.14547545 8.12357287 -0.23413226 12.1875 -0.3125 C13.91323242 -0.3753418 13.91323242 -0.3753418 15.67382812 -0.43945312 C24.01021478 -0.56027032 24.01021478 -0.56027032 26.88134766 1.06494141 C29.75414647 3.87985007 30.93307586 6.30398892 31.3125 10.25 C30.94713599 14.63436813 29.73973233 16.61562477 27 20 C24.44276771 21.27861615 22.63262898 21.11336609 19.7734375 21.09765625 C18.7421875 21.09443359 17.7109375 21.09121094 16.6484375 21.08789062 C15.02808594 21.07532227 15.02808594 21.07532227 13.375 21.0625 C11.74304688 21.05573242 11.74304688 21.05573242 10.078125 21.04882812 C7.38539338 21.0370179 4.69268991 21.01908205 2 21 C2 14.4 2 7.8 2 1 C1.34 0.67 0.68 0.34 0 0 Z " fill="#62DCF9" transform="translate(44,15)"/>
<path d="M0 0 C3.361875 0.103125 6.72375 0.20625 10.1875 0.3125 C10.1875 7.2425 10.1875 14.1725 10.1875 21.3125 C6.825625 21.415625 3.46375 21.51875 0 21.625 C-1.57624146 21.69328003 -1.57624146 21.69328003 -3.18432617 21.76293945 C-7.74722148 21.83075504 -10.11351184 21.79735231 -13.94921875 19.13671875 C-15.99086116 16.04215384 -16.48908024 14.48501301 -16.4375 10.8125 C-16.45039063 9.8946875 -16.46328125 8.976875 -16.4765625 8.03125 C-14.32390267 -0.78199258 -7.51964456 -0.32573788 0 0 Z " fill="#C286FF" transform="translate(15.8125,14.6875)"/>
<path d="M0 0 C4.53861925 2.14987228 6.85253931 4.47903012 9 9 C9.82869778 11.77063547 10.11952346 14.22290286 10.09765625 17.109375 C10.09443359 17.86347656 10.09121094 18.61757813 10.08789062 19.39453125 C10.07532227 20.56048828 10.07532227 20.56048828 10.0625 21.75 C10.05798828 22.54277344 10.05347656 23.33554688 10.04882812 24.15234375 C10.03708565 26.10159508 10.01915146 28.05080738 10 30 C8.35 30.33 6.7 30.66 5 31 C4.67 30.01 4.34 29.02 4 28 C3.401875 28.495 2.80375 28.99 2.1875 29.5 C-2.53201671 31.72094904 -6.87059947 31.65626154 -12 31 C-16.95548536 28.83760639 -19.18493161 25.89265545 -21.3046875 21.07421875 C-22.93235879 16.21863756 -22.39106587 12.39523797 -20.375 7.8125 C-15.71462524 -0.46368275 -8.84700621 -1.20144529 0 0 Z M-16 10 C-17.04002166 13.64007581 -17.23030472 16.00968968 -16.375 19.6875 C-14.57072503 22.72196245 -13.06048212 24.20363006 -10 26 C-5.80561685 26.84057476 -2.88795031 26.48258169 0.875 24.4375 C3.61614793 21.29324208 4.43902802 19.13716835 5 15 C3.91729729 11.39099097 2.78512195 8.90143631 0.3125 6.0625 C-6.49290751 2.93569115 -11.37054154 4.69305981 -16 10 Z " fill="#131313" transform="translate(114,42)"/>
<path d="M0 0 C3.74592426 3.55862805 5.35974468 6.51661707 5.75 11.6875 C5.5 14.375 5.5 14.375 4.5 15.375 C2.79227642 15.46213831 1.08101351 15.48200007 -0.62890625 15.47265625 C-2.18061523 15.46782227 -2.18061523 15.46782227 -3.76367188 15.46289062 C-4.85228516 15.45451172 -5.94089844 15.44613281 -7.0625 15.4375 C-8.7012207 15.43073242 -8.7012207 15.43073242 -10.37304688 15.42382812 C-13.08208495 15.41199826 -15.79101599 15.39551543 -18.5 15.375 C-15.82402189 21.18700655 -15.82402189 21.18700655 -10.5 24.375 C-7.01944126 24.19932642 -7.01944126 24.19932642 -3.5 23.375 C-2.365625 23.189375 -1.23125 23.00375 -0.0625 22.8125 C1.2059375 22.5959375 1.2059375 22.5959375 2.5 22.375 C2.5 23.695 2.5 25.015 2.5 26.375 C-0.64739057 29.41385986 -3.74350171 29.62429433 -7.9375 29.75 C-12.50729352 29.59644511 -15.75826526 29.20411651 -19.5 26.375 C-23.43390912 21.40585164 -24.13752162 17.32726689 -23.88671875 11.03125 C-23.15850508 6.02937836 -21.14560244 2.92086895 -17.4375 -0.5625 C-11.54423466 -2.69410661 -5.67857951 -2.63648334 0 0 Z M-17.5 7.375 C-17.83 8.695 -18.16 10.015 -18.5 11.375 C-12.23 11.375 -5.96 11.375 0.5 11.375 C-1.12953471 6.48760166 -1.12953471 6.48760166 -4.5 3.375 C-10.27569377 2.72290554 -13.38198617 2.88262128 -17.5 7.375 Z " fill="#131313" transform="translate(238.5,43.625)"/>
<path d="M0 0 C2.84019136 2.69818179 4.19569775 4.67947697 5.5 8.375 C5.5 10.685 5.5 12.995 5.5 15.375 C-2.42 15.375 -10.34 15.375 -18.5 15.375 C-15.34064264 21.85874547 -15.34064264 21.85874547 -12.6875 23.875 C-9.44249808 24.61671473 -6.7498105 23.99134337 -3.5 23.375 C-2.365625 23.189375 -1.23125 23.00375 -0.0625 22.8125 C1.2059375 22.5959375 1.2059375 22.5959375 2.5 22.375 C2.5 23.695 2.5 25.015 2.5 26.375 C-0.66460568 29.43048134 -3.78395826 29.62482737 -8 29.75 C-12.31673744 29.6167316 -15.15603474 29.31363613 -18.5 26.375 C-23.0981306 21.13824015 -23.85322142 18.07130577 -23.78125 11.20703125 C-23.27087516 6.06784019 -21.21569219 2.98671084 -17.4375 -0.5625 C-11.54423466 -2.69410661 -5.67857951 -2.63648334 0 0 Z M-17.5 7.375 C-17.83 8.695 -18.16 10.015 -18.5 11.375 C-12.23 11.375 -5.96 11.375 0.5 11.375 C-0.81297122 5.38961763 -0.81297122 5.38961763 -4.5 3.375 C-10.28579442 2.81508441 -13.36797448 2.8673358 -17.5 7.375 Z " fill="#131313" transform="translate(205.5,43.625)"/>
<path d="M0 0 C1.65 0 3.3 0 5 0 C5.07433779 4.89295147 5.12869027 9.78557183 5.16479492 14.67895508 C5.17985114 16.34242481 5.20030063 18.00585505 5.22631836 19.66918945 C5.26284207 22.06471522 5.27975782 24.45971467 5.29296875 26.85546875 C5.30845261 27.5952446 5.32393646 28.33502045 5.33988953 29.09721375 C5.34181719 35.05519874 3.83346061 38.11560993 -0.25 42.3125 C-3.69756315 44.42805011 -6.02612932 44.31167613 -10 44 C-10.33 42.68 -10.66 41.36 -11 40 C-10.36191406 39.74605469 -9.72382812 39.49210937 -9.06640625 39.23046875 C-8.24011719 38.88628906 -7.41382812 38.54210937 -6.5625 38.1875 C-5.73878906 37.85105469 -4.91507812 37.51460937 -4.06640625 37.16796875 C-1.66627512 36.11596912 -1.66627512 36.11596912 -1 33 C-0.8470353 30.48945095 -0.74304822 28.00111475 -0.68359375 25.48828125 C-0.66281265 24.76005661 -0.64203156 24.03183197 -0.62062073 23.28153992 C-0.55531254 20.95862125 -0.49632763 18.63559094 -0.4375 16.3125 C-0.39429695 14.73631665 -0.35068208 13.16014452 -0.30664062 11.58398438 C-0.1996504 7.72277025 -0.09833039 3.86144397 0 0 Z " fill="#141414" transform="translate(81,42)"/>
<path d="M0 0 C1.65 0 3.3 0 5 0 C5.02505615 1.08007324 5.0501123 2.16014648 5.07592773 3.27294922 C5.16995572 7.27242312 5.27018754 11.27172147 5.37231445 15.27099609 C5.4156808 17.00337626 5.45735463 18.73579963 5.49731445 20.46826172 C5.55497594 22.95553627 5.61868198 25.44259293 5.68359375 27.9296875 C5.70030624 28.70682098 5.71701874 29.48395447 5.73423767 30.28463745 C5.76473429 34.27274216 5.76473429 34.27274216 7 38 C8.64363134 38.72159424 10.31050386 39.39351421 12 40 C11.67 41.32 11.34 42.64 11 44 C7.75 44.375 7.75 44.375 4 44 C-0.32240145 39.17430523 -0.54897898 35.23959446 -0.390625 29.1015625 C-0.38496521 28.26660248 -0.37930542 27.43164246 -0.37347412 26.57138062 C-0.35120223 23.92198734 -0.30102523 21.27397984 -0.25 18.625 C-0.22992302 16.82163421 -0.21167435 15.01824708 -0.1953125 13.21484375 C-0.15136786 8.80936731 -0.08240601 4.40491806 0 0 Z " fill="#141414" transform="translate(249,29)"/>
<path d="M0 0 C1.65 0 3.3 0 5 0 C5.33 1.65 5.66 3.3 6 5 C4.35 5.66 2.7 6.32 1 7 C0.34 6.34 -0.32 5.68 -1 5 C-0.625 2.375 -0.625 2.375 0 0 Z " fill="#131313" transform="translate(81,30)"/>
</svg>
