<svg width="124" height="29" viewBox="0 0 124 29" fill="none" xmlns="http://www.w3.org/2000/svg">
<path d="M9.63 19.26H7.56V28.395H0V0.45H9.135C12.345 0.45 14.73 1.185 16.29 2.655C17.85 4.125 18.63 6.54 18.63 9.9C18.63 13.26 17.895 15.66 16.425 17.1C14.955 18.54 12.69 19.26 9.63 19.26ZM10.485 13.185C10.755 12.675 10.89 11.76 10.89 10.44C10.89 9.12 10.74 8.19 10.44 7.65C10.14 7.11 9.54 6.84 8.64 6.84H7.56V13.95H8.82C9.66 13.95 10.215 13.695 10.485 13.185Z" fill="black"/>
<path d="M28.974 28.395H21.324V10.45H28.974V28.395Z" fill="black"/>
<path d="M53.7834 28.395H46.4034L40.5984 15.39H40.2384V28.395H33.3984V0.45H41.0034L46.5384 13.86H46.8984V0.45H53.7834V28.395Z" fill="black"/>
<path d="M59.4091 3.375C61.1491 1.125 63.9841 0 67.9141 0C71.8441 0 74.6491 1.11 76.3291 3.33C78.0391 5.55 78.8941 9.165 78.8941 14.175C78.8941 19.155 78.0241 22.845 76.2841 25.245C74.5441 27.645 71.7241 28.845 67.8241 28.845C63.9241 28.845 61.1191 27.66 59.4091 25.29C57.6991 22.92 56.8441 19.245 56.8441 14.265C56.8441 9.255 57.6991 5.625 59.4091 3.375ZM71.1541 14.175C71.1541 11.415 70.9291 9.555 70.4791 8.595C70.0591 7.605 69.1741 7.11 67.8241 7.11C66.5041 7.11 65.6491 7.605 65.2591 8.595C64.8691 9.555 64.6741 11.4 64.6741 14.13V15.21C64.6741 18.12 64.8841 20.04 65.3041 20.97C65.7541 21.87 66.6391 22.32 67.9591 22.32C69.3091 22.32 70.1791 21.885 70.5691 21.015C70.9591 20.145 71.1541 18.345 71.1541 15.615V14.175Z" fill="black"/>
<path d="M101.083 9.315C101.083 10.995 100.828 12.39 100.318 13.5C99.808 14.61 99.013 15.615 97.933 16.515L101.668 28.395H93.343L90.553 18.315H89.518V28.395H81.958V0.45H92.398C95.398 0.45 97.588 1.155 98.968 2.565C100.378 3.975 101.083 6.225 101.083 9.315ZM90.688 13.59C91.468 13.59 92.023 13.365 92.353 12.915C92.683 12.465 92.848 11.655 92.848 10.485C92.848 9.285 92.683 8.46 92.353 8.01C92.023 7.53 91.483 7.29 90.733 7.29H89.518V13.59H90.688Z" fill="black"/>
<path d="M123.094 0.45L116.434 19.755L122.434 28.395H114.784L108.784 19.755L102.214 0.45H110.674L112.699 9.54H113.059L114.994 0.45H123.094Z" fill="black"/>
<path d="M29 5C29 7.20914 27.2091 9 25 9C22.7909 9 21 7.20914 21 5C21 2.79086 22.7909 1 25 1C27.2091 1 29 2.79086 29 5Z" fill="#FFA800"/>
<path d="M119 19L124 27V6.5L119 19Z" fill="#FFA800"/>
</svg>
